<svg width="24" height="24" viewBox="0 0 24 24" fill="none" xmlns="http://www.w3.org/2000/svg">
<path d="M20 11H6.82999L9.70999 8.11999C9.89696 7.93301 10.002 7.67942 10.002 7.41499C10.002 7.15056 9.89696 6.89697 9.70999 6.70999C9.52301 6.52301 9.26941 6.41797 9.00499 6.41797C8.74056 6.41797 8.48696 6.52301 8.29999 6.70999L3.70999 11.3C3.61728 11.3925 3.54373 11.5024 3.49355 11.6234C3.44337 11.7443 3.41754 11.874 3.41754 12.005C3.41754 12.136 3.44337 12.2656 3.49355 12.3866C3.54373 12.5076 3.61728 12.6175 3.70999 12.71L8.29999 17.3C8.39257 17.3926 8.50248 17.466 8.62344 17.5161C8.74441 17.5662 8.87406 17.592 9.00499 17.592C9.13592 17.592 9.26556 17.5662 9.38653 17.5161C9.50749 17.466 9.6174 17.3926 9.70999 17.3C9.80257 17.2074 9.87601 17.0975 9.92611 16.9765C9.97622 16.8556 10.002 16.7259 10.002 16.595C10.002 16.4641 9.97622 16.3344 9.92611 16.2134C9.87601 16.0925 9.80257 15.9826 9.70999 15.89L6.82999 13H20C20.55 13 21 12.55 21 12C21 11.45 20.55 11 20 11Z" fill="#8C849E"/>
</svg>
