<?xml version="1.0" standalone="no"?>
<!DOCTYPE svg PUBLIC "-//W3C//DTD SVG 20010904//EN"
 "http://www.w3.org/TR/2001/REC-SVG-20010904/DTD/svg10.dtd">
<svg version="1.0" xmlns="http://www.w3.org/2000/svg"
 width="648.000000pt" height="648.000000pt" viewBox="0 0 648.000000 648.000000"
 preserveAspectRatio="xMidYMid meet">
<metadata>
Created by potrace 1.14, written by Peter Selinger 2001-2017
</metadata>
<g transform="translate(0.000000,648.000000) scale(0.100000,-0.100000)"
fill="#000000" stroke="none">
<path d="M1303 5672 c-23 -2 -33 -9 -34 -20 0 -9 0 -391 0 -849 l-1 -832 40
-98 c34 -83 83 -228 97 -290 3 -10 9 -38 16 -63 13 -55 18 -76 24 -115 3 -16
10 -52 15 -80 6 -27 12 -66 14 -85 2 -19 7 -61 11 -92 25 -204 40 -736 22
-755 -4 -4 -344 -7 -756 -7 l-749 -1 3 -45 c7 -95 16 -183 20 -191 3 -4 7 -22
9 -40 18 -136 83 -308 162 -429 54 -82 68 -98 129 -144 63 -48 91 -60 173 -70
37 -5 140 22 160 41 7 7 18 13 24 13 20 0 129 124 168 190 21 36 51 97 66 135
16 39 29 72 31 74 1 2 121 4 265 4 253 0 263 0 262 -19 -3 -40 -15 -131 -23
-166 -5 -21 -7 -38 -4 -38 3 0 0 -6 -6 -13 -6 -8 -9 -16 -6 -19 3 -2 -1 -26
-9 -51 -8 -26 -13 -47 -11 -47 10 0 -108 -309 -132 -345 -10 -14 -13 -72 -13
-226 l0 -207 252 1 252 2 1 670 0 670 24 45 c25 48 61 115 113 208 17 31 38
70 46 85 8 16 18 25 22 20 4 -4 22 -55 40 -113 17 -58 34 -112 37 -120 8 -19
11 -32 16 -50 2 -8 16 -55 32 -105 16 -49 29 -92 30 -95 1 -3 9 -32 20 -65 10
-33 20 -64 21 -70 5 -16 97 -311 179 -575 43 -135 83 -265 90 -290 7 -25 18
-57 24 -72 6 -16 8 -28 5 -28 -4 0 -2 -6 3 -12 6 -7 14 -26 18 -43 5 -16 9
-33 10 -37 2 -5 3 -12 4 -17 1 -13 641 -13 641 0 0 5 -14 51 -31 102 -17 50
-33 99 -35 107 -3 8 -5 16 -5 17 0 2 -8 23 -19 48 -11 25 -19 46 -18 48 1 1
-7 27 -17 57 -11 30 -20 57 -20 60 -1 3 -5 12 -8 20 -6 14 -136 399 -217 640
-49 148 -160 470 -167 490 -3 8 -7 20 -9 25 -4 15 -199 587 -232 682 -26 73
-28 85 -15 103 8 11 11 20 7 20 -3 0 -1 6 5 14 6 7 23 35 37 62 15 27 40 74
56 104 17 30 42 78 57 105 15 28 47 86 71 130 24 44 60 111 82 148 21 38 38
71 38 73 0 2 11 22 25 44 14 22 25 46 25 55 0 8 4 15 9 15 5 0 14 15 22 33 7
17 15 34 18 37 3 3 15 23 27 45 32 61 102 191 151 279 23 43 43 80 43 81 0 5
-565 4 -582 -1 -10 -3 -56 -77 -105 -167 -48 -89 -91 -163 -95 -165 -4 -2 -8
-8 -8 -14 0 -6 -29 -63 -64 -127 -35 -64 -78 -143 -96 -176 -18 -33 -87 -159
-153 -280 -66 -121 -127 -232 -135 -247 -7 -16 -15 -28 -17 -28 -2 0 -2 547
-2 1215 2 1074 0 1215 -13 1215 -109 3 -433 4 -457 2z"/>
<path d="M4673 5662 l-43 -3 0 -400 0 -399 253 1 254 1 0 395 c0 309 -3 396
-13 400 -14 5 -387 10 -451 5z"/>
<path d="M5585 4864 c0 -266 -3 -408 -10 -410 -6 -3 -78 -5 -160 -7 l-150 -2
-1 -325 c-1 -179 2 -327 6 -330 5 -3 70 -4 147 -3 76 1 145 0 153 -3 13 -3 15
-137 15 -1126 1 -618 4 -1154 8 -1193 12 -113 16 -139 22 -165 3 -14 8 -35 11
-48 15 -73 60 -187 99 -255 50 -85 86 -123 153 -164 l44 -26 260 -1 c142 -1
263 1 267 4 5 3 8 185 7 405 l-1 400 -137 5 c-75 3 -138 7 -140 10 -39 47 -60
86 -72 134 -14 51 -15 187 -13 1040 l2 981 175 1 c96 1 183 2 193 3 16 1 17
24 17 329 l0 328 -182 -1 c-101 0 -189 1 -195 3 -10 3 -13 95 -13 413 l0 409
-253 0 -252 0 0 -406z"/>
<path d="M3291 4440 c-5 -3 -8 -824 -7 -1825 l1 -1820 250 0 250 0 2 815 c1
771 6 1073 17 1130 2 14 7 46 10 71 7 49 13 80 22 119 3 14 8 38 11 55 16 89
123 364 145 373 4 2 8 9 8 14 0 17 79 119 128 164 76 71 137 95 258 99 58 3
108 6 112 9 5 3 8 763 3 799 -2 13 -205 7 -265 -8 -32 -9 -64 -19 -70 -22 -6
-4 -17 -8 -24 -9 -26 -4 -145 -89 -202 -143 -32 -31 -81 -87 -111 -126 -29
-38 -56 -74 -60 -78 -4 -5 -6 75 -5 178 0 103 -2 192 -6 198 -6 10 -452 17
-467 7z"/>
<path d="M4635 4441 c-3 -2 -5 -823 -5 -1823 0 -1724 1 -1818 18 -1819 22 -1
452 -1 473 0 14 1 15 173 15 1824 l-1 1822 -248 0 c-136 1 -250 -1 -252 -4z"/>
<path d="M440 3784 c-32 -11 -96 -39 -109 -49 -42 -31 -132 -127 -162 -175
-47 -73 -94 -185 -120 -280 -17 -62 -17 -61 -23 -100 -18 -102 -22 -141 -22
-205 l1 -70 505 0 505 0 -1 80 c-1 44 -4 102 -8 130 -6 54 -53 249 -66 274 -4
9 -25 52 -46 96 -22 44 -41 82 -44 85 -3 3 -17 21 -32 41 -61 82 -149 148
-223 168 -40 11 -127 14 -155 5z"/>
</g>
</svg>
