<svg width="81" height="29" viewBox="0 0 81 29" fill="none" xmlns="http://www.w3.org/2000/svg">
<g clip-path="url(#clip0_1_175)">
<path d="M64.2119 0.567627H57.8869V5.1606H64.2119V0.567627Z" fill="#180B38"/>
<path d="M76.1321 2.80994H69.807V7.52748H65.7835V11.3264H69.807V23.4238C69.807 23.564 69.807 23.7041 69.8236 23.8442C69.8236 26.382 72.0092 28.4371 74.708 28.4371H80.7187V23.7663H77.7549C76.8603 23.7663 76.1321 23.0813 76.1321 22.2406V11.3264H81V7.54303H76.1321V2.80994Z" fill="#180B38"/>
<path d="M64.2119 7.54254H57.8869V28.4834H64.2119V7.54254Z" fill="#180B38"/>
<path d="M47.0229 9.87976V7.5599H41.029V28.5007H47.3541V18.8477C47.3871 15.1733 50.5497 12.184 54.4407 12.184H56.2952V7.51318H54.4407C51.6425 7.52873 49.0761 8.36947 47.0229 9.87976Z" fill="#180B38"/>
<path d="M10.8949 12.791C9.70279 11.8413 8.08018 11.2963 6.39127 11.2963C4.70238 11.2963 3.07973 11.8257 1.88757 12.791C0.678865 13.7407 0 15.033 0 16.3875H12.7494C12.7494 15.033 12.0871 13.7407 10.8949 12.791Z" fill="#180B38"/>
<path d="M37.9015 7.52882H30.4505L22.1551 14.5195V0.507019H15.8467V10.269C16.0619 10.487 16.2771 10.7206 16.4759 10.9541C17.4693 12.1218 18.0488 13.1961 18.4793 14.6907C18.9098 16.1699 19.0091 17.7423 18.8767 19.3615H11.9887V19.3772H0.0340576C0.133404 20.7472 0.779151 22.0395 1.88852 23.0048C3.08067 24.0635 4.70333 24.6552 6.40877 24.6552C8.09765 24.6552 9.72033 24.0635 10.929 23.0048C11.2768 22.709 11.5748 22.3664 11.8231 22.0239H18.4793C18.4793 22.0239 18.2475 23.2695 17.4196 24.4528C16.807 25.309 16.3268 25.7917 15.8632 26.2121V28.5163H22.1717V20.8095L24.7382 18.6453L31.4109 28.5163H39.4579L29.2915 14.7997L37.9015 7.52882Z" fill="#180B38"/>
</g>
<defs>
<clipPath id="clip0_1_175">
<rect width="81" height="28.9286" fill="white"/>
</clipPath>
</defs>
</svg>
